<svg role="img" viewBox="0 0 30 30" xmlns="http://www.w3.org/2000/svg" id="Researchgate--Streamline-Simple-Icons" height="30" width="30">
  <desc>
    Researchgate Streamline Icon: https://streamlinehq.com
  </desc>
  <title>ResearchGate</title>
  <path d="M24.482499999999998 0c-1.0225 0 -1.885 0.2375 -2.59125 0.7062499999999999 -0.7037499999999999 0.47125 -1.2125 1.1700000000000002 -1.51625 2.1a3.99125 3.99125 0 0 0 -0.14 0.54625 10.45625 10.45625 0 0 0 -0.0975 0.6625000000000001 11.25 11.25 0 0 0 -0.0625 0.90875c-0.0125 0.3525 -0.01625 0.77625 -0.01625 1.27a38.90125 38.90375 0 0 0 0.0175 1.2712499999999998 11.25 11.25 0 0 0 0.0625 0.90875 9.9325 9.9325 0 0 0 0.09625 0.6625000000000001h-0.00625a4.1675 4.1675 0 0 0 0.14125000000000001 0.5475c0.30625 0.92875 0.8125 1.62875 1.5175 2.1 0.7062499999999999 0.47 1.57 0.705 2.59375 0.705 1 0 1.92 -0.26625 2.63125 -0.7537499999999999 0.7124999999999999 -0.48750000000000004 1.1749999999999998 -1.145 1.46875 -2.0625 0.095 -0.29374999999999996 0.16875 -0.6975 0.22125 -1.1625a13.625 13.625 0 0 0 0.05374999999999999 -1.50875v-1.025c0 -0.11875 -0.05875 -0.1775 -0.17500000000000002 -0.1775h-3.83c-0.1175 0 -0.17500000000000002 0.05875 -0.17500000000000002 0.17625v1.1949999999999998c0 0.1175 0.057499999999999996 0.17500000000000002 0.17500000000000002 0.17500000000000002h2.0825c0.07 0 0.10500000000000001 0.0375 0.10500000000000001 0.10749999999999998 0 0.44999999999999996 0 0.775 -0.045 1.08125 -0.0475 0.305 -0.125 0.55875 -0.18375 0.7575 -0.135 0.48125 -0.43499999999999994 0.8300000000000001 -0.7975 1.095 -0.3625 0.265 -0.9225 0.4375 -1.5337500000000002 0.4375 -0.68125 0 -1.12625 -0.1875 -1.5125 -0.44125 -0.3825 -0.25375000000000003 -0.64625 -0.5675 -0.8375 -1.14375a3.92 3.92 0 0 1 -0.18375 -0.9525 21.7075 21.708750000000002 0 0 1 -0.0425 -0.8200000000000001c-0.0125 -0.325 -0.0175 -0.715 -0.0175 -1.1737499999999998a33.00125 33.00375 0 0 1 0.0175 -1.1724999999999999 19.77625 19.7775 0 0 1 0.043750000000000004 -0.8200000000000001 3.9875 3.9875 0 0 1 0.185 -0.95 2.3625 2.3625 0 0 1 0.9275 -1.2625c0.42999999999999994 -0.305 0.74125 -0.43999999999999995 1.4212500000000001 -0.43999999999999995 0.635 0 1.0187499999999998 0.12 1.43 0.37875 0.41250000000000003 0.25875 0.66 0.615 0.9550000000000001 1.15625 0.05875 0.1175 0.13875 0.1475 0.2475 0.08750000000000001l1.3050000000000002 -0.5375c0.09375 -0.06 0.11249999999999999 -0.14375000000000002 0.052500000000000005 -0.24875000000000003a4.43625 4.43625 0 0 0 -0.5825 -0.9275 3.75 3.75 0 0 0 -0.8487500000000001 -0.75875 4.14125 4.14125 0 0 0 -1.1287500000000001 -0.5125A5.084999999999999 5.084999999999999 0 0 0 24.482499999999998 0zM10.27125 7.295c-2.1125 0 -3.795 0.10749999999999998 -5.37125 0.10749999999999998 -1.4324999999999999 0 -2.86375 0 -3.75875 -0.036250000000000004v1.0387499999999998l1.36 0.25c0.9299999999999999 0.18 1.4674999999999998 0.61 1.4674999999999998 2.8299999999999996v14.11c0 2.22125 -0.5375 2.6500000000000004 -1.4674999999999998 2.82875l-1.36 0.25v1.04c0.96625 -0.036250000000000004 2.6500000000000004 -0.10749999999999998 4.33125 -0.10749999999999998 1.6125 0 3.68875 0.07125000000000001 4.58375 0.10749999999999998v-1.0387499999999998l-1.8625 -0.25c-0.96625 -0.14375000000000002 -1.4674999999999998 -0.60875 -1.4674999999999998 -2.8299999999999996v-5.9799999999999995c0.8599999999999999 0.07125000000000001 1.6125 0.07125000000000001 2.7575 0.07125000000000001 2.185 3.9037500000000005 4.2625 6.840000000000001 5.4437500000000005 8.2 1.075 1.29 2.72125 2.11375 4.79875 2.11375 0.60875 0 1.25375 -0.10749999999999998 1.6475 -0.28750000000000003v-0.9299999999999999c-1.2887499999999998 0 -2.5787500000000003 -0.895 -3.51 -1.8975 -1.575 -1.7199999999999998 -3.6875 -4.4775 -5.4437500000000005 -7.592499999999999 2.9 -0.68125 5.05 -3.4025 5.05 -6.125 0 -4.01 -3.115 -5.8725000000000005 -7.1975 -5.8725000000000005zm-0.64375 1.6125c3.0075000000000003 0 4.79875 1.575 4.79875 4.44 0 2.82875 -1.9337499999999999 4.7275 -5.121250000000001 4.7275 -1.2175 0 -1.755 -0.0375 -2.5787500000000003 -0.10749999999999998v-8.9875c0.8250000000000001 -0.07375 1.9337499999999999 -0.07375 2.9 -0.07375z" fill="#000000" stroke-width="1.25"></path>
</svg>